<svg width="115" height="115" viewBox="0 0 115 115" fill="none" xmlns="http://www.w3.org/2000/svg">
<rect width="115" height="115" rx="57.5" fill="#D9BDFE"/>
<path fill-rule="evenodd" clip-rule="evenodd" d="M74.7507 46C74.7507 55.5269 67.0276 63.25 57.5007 63.25C47.9738 63.25 40.2507 55.5269 40.2507 46C40.2507 36.4731 47.9738 28.75 57.5007 28.75C67.0276 28.75 74.7507 36.4731 74.7507 46ZM69.0007 46C69.0007 52.3513 63.852 57.5 57.5007 57.5C51.1494 57.5 46.0007 52.3513 46.0007 46C46.0007 39.6487 51.1494 34.5 57.5007 34.5C63.852 34.5 69.0007 39.6487 69.0007 46Z" fill="#523C72"/>
<path d="M57.5007 71.875C38.8869 71.875 23.0274 82.8817 16.9861 98.3021C18.4578 99.7635 20.0081 101.146 21.6302 102.442C26.1288 88.2846 40.2413 77.625 57.5007 77.625C74.7602 77.625 88.8727 88.2846 93.3713 102.442C94.9933 101.146 96.5436 99.7636 98.0154 98.3022C91.9741 82.8817 76.1146 71.875 57.5007 71.875Z" fill="#523C72"/>
</svg>
